#!OML:ASF G:\ViconDB\ViconDB\414\test\team2\shane.ASF
:FULLY-SPECIFIED
:DEGREES
298
root 0.898955 16.4834 14.025 -3.34883 -5.75258 -4.15223
lowerback 9.5965 2.97916 1.92358
upperback 5.02259 4.14336 3.56912
thorax -0.283727 2.06098 2.20865
lowerneck -8.21064 -5.49156 -12.1711
upperneck 20.0279 -4.35358 -5.85642
head 7.80826 -3.47988 -0.352686
rclavicle 2.5842e-015 3.18055e-015
rhumerus -11.9169 2.84552 -43.2456
rradius 117.475
rwrist 158.033
rhand -13.9917 19.2831
rfingers 7.12502
rthumb 12.1371 -10.3449
lclavicle 2.5842e-015 3.18055e-015
lhumerus -46.3914 -32.7716 103.498
lradius 41.273
lwrist -14.6885
lhand -39.9166 5.86012
lfingers 7.12502
lthumb -12.8874 35.4422
rfemur 31.8706 -5.91235 16.9877
rtibia -1.59028e-014
rfoot -14.9178 2.57387
rtoes -19.6459
lfemur -27.1976 14.6888 -11.6203
ltibia 30.7462
lfoot -27.0315 -9.7737
ltoes -14.5555
299
root 0.924928 16.457 14.2549 -3.2955 -6.19123 -4.3169
lowerback 9.39569 3.30273 7.26089
upperback 5.1749 4.94485 0.0980711
thorax 0.765989 2.63681 -4.3553
lowerneck -9.30796 -5.80407 -9.17106
upperneck 20.349 -5.56532 -3.71178
head 8.05096 -3.66304 -0.266685
rclavicle 9.00619e-014 2.48481e-015
rhumerus -18.8937 -11.7584 -51.228
rradius 126.353
rwrist 160.576
rhand -7.33809 17.5345
rfingers 7.12502
rthumb 18.5456 -11.6015
lclavicle 9.00619e-014 2.48481e-015
lhumerus -51.8482 -26.6463 97.2566
lradius 44.1974
lwrist -14.2524
lhand -36.9731 4.46299
lfingers 7.12502
lthumb -10.0486 34.2031
rfemur 32.5437 -5.47996 16.8426
rtibia -1.20861e-013
rfoot -13.9757 2.9269
rtoes -20.3522
lfemur -26.7029 15.0488 -11.603
ltibia 31.3402
lfoot -26.3521 -9.6953
ltoes -15.1184
300
root 0.951988 16.4561 14.4977 -3.24155 -6.51786 -4.56748
lowerback 9.32066 2.56397 4.46419
upperback 4.81347 3.76263 1.3207
thorax -0.0162364 1.93994 -1.47155
lowerneck -9.79075 -4.59504 -8.96296
upperneck 20.6774 -3.62746 -4.89539
head 8.17691 -2.86539 -0.511819
rclavicle -4.53353e-014 -1.26228e-014
rhumerus -16.874 -5.71439 -51.0952
rradius 124.817
rwrist 161.482
rhand -6.80791 19.0237
rfingers 7.12502
rthumb 19.0556 -10.0628
lclavicle 9.00619e-014 2.48481e-015
lhumerus -51.8482 -26.6463 97.2566
lradius 44.1974
lwrist -14.2524
lhand -36.9731 4.46299
lfingers 7.12502
lthumb -10.0486 34.2031
rfemur 33.2092 -5.18576 16.8309
rtibia 1.59028e-014
rfoot -12.9045 3.1124
rtoes -21.9629
lfemur -26.4461 15.2681 -11.4915
ltibia 32.0117
lfoot -24.2646 -9.80015
ltoes -15.5119
301
root 0.983891 16.4635 14.7412 -3.05786 -6.72328 -4.85197
lowerback 9.43246 3.20419 7.17669
upperback 4.52091 4.8387 0.142321
thorax 0.0334138 2.53575 -4.28978
lowerneck -9.54654 -5.40398 -8.75767
upperneck 21.3502 -4.9948 -3.84221
head 8.39834 -3.41214 -0.343079
rclavicle -4.72362e-014 -1.07344e-014
rhumerus -16.874 -5.71439 -51.0952
rradius 124.817
rwrist 161.482
rhand -6.80791 19.0237
rfingers 7.12502
rthumb 19.0556 -10.0628
lclavicle 9.00619e-014 2.48481e-015
lhumerus -51.8482 -26.6463 97.2566
lradius 44.1974
lwrist -14.2524
lhand -36.9731 4.46299
lfingers 7.12502
lthumb -10.0486 34.2031
rfemur 33.7243 -4.98137 16.7765
rtibia -2.22639e-014
rfoot -11.4349 3.63368
rtoes -23.3116
lfemur -26.3831 14.2818 -11.0503
ltibia 32.6393
lfoot -20.4524 -9.10267
ltoes -12.9919
302
root 1.0199 16.4716 14.9892 -2.96325 -6.83796 -4.94716
lowerback 9.50281 3.12485 7.16656
upperback 4.14744 4.75308 0.0131295
thorax -0.396685 2.46819 -4.43479
lowerneck -9.76299 -5.20483 -8.63345
upperneck 22.2723 -4.707 -3.72048
head 8.74436 -3.28775 -0.316175
rclavicle -2.82771e-014 4.96962e-015
rhumerus -16.874 -5.71439 -51.0952
rradius 124.817
rwrist 161.482
rhand -6.80791 19.0237
rfingers 7.12502
rthumb 19.0556 -10.0628
lclavicle 9.00619e-014 2.48481e-015
lhumerus -51.8482 -26.6463 97.2566
lradius 44.1974
lwrist -14.2524
lhand -36.9731 4.46299
lfingers 7.12502
lthumb -10.0486 34.2031
rfemur 34.2772 -4.81445 16.4456
rtibia 8.5875e-014
rfoot -9.54233 4.30107
rtoes -23.8428
lfemur -26.1155 13.8644 -10.946
ltibia 33.2209
lfoot -18.2094 -9.0766
ltoes -11.0265
303
root 1.04685 16.4923 15.2386 -2.82998 -6.83806 -4.85584
lowerback 8.86598 2.33153 4.15479
upperback 4.10824 3.42971 1.10455
thorax -0.525158 1.75209 -1.4951
lowerneck -10.6952 -4.09512 -8.49752
upperneck 23.1299 -2.7684 -4.94667
head 9.15775 -2.53992 -0.58119
rclavicle 1.14301e-014 -9.93923e-017
rhumerus -16.874 -5.71439 -51.0952
rradius 124.817
rwrist 161.482
rhand -6.80791 19.0237
rfingers 7.12502
rthumb 19.0556 -10.0628
lclavicle 9.00619e-014 2.48481e-015
lhumerus -51.8482 -26.6463 97.2566
lradius 44.1974
lwrist -14.2524
lhand -36.9731 4.46299
lfingers 7.12502
lthumb -10.0486 34.2031
rfemur 34.7424 -4.76192 15.9459
rtibia 6.36111e-015
rfoot -7.09584 4.8978
rtoes -25.4769
lfemur -25.6675 13.6495 -11.1062
ltibia 33.6026
lfoot -16.9851 -8.59747
ltoes -11.4411
304
root 1.07302 16.5208 15.4801 -2.77747 -6.79794 -4.66341
lowerback 8.71878 2.32125 3.80807
upperback 3.94712 3.3851 0.930559
thorax -0.624708 1.72369 -1.47555
lowerneck -11.0866 -4.04881 -8.43389
upperneck 24.366 -2.6101 -4.90121
head 9.66573 -2.50852 -0.591987
rclavicle 3.73218e-014 3.18055e-015
rhumerus -16.874 -5.71439 -51.0952
rradius 124.817
rwrist 161.482
rhand -6.80791 19.0237
rfingers 7.12502
rthumb 19.0556 -10.0628
lclavicle 9.00619e-014 2.48481e-015
lhumerus -51.8482 -26.6463 97.2566
lradius 44.1974
lwrist -14.2524
lhand -36.9731 4.46299
lfingers 7.12502
lthumb -10.0486 34.2031
rfemur 35.1312 -4.74385 15.3402
rtibia -4.45278e-014
rfoot -3.9501 5.39543
rtoes -26.6553
lfemur -25.0453 13.4103 -11.2886
ltibia 33.9345
lfoot -15.7922 -8.50748
ltoes -10.6122
305
root 1.10058 16.5525 15.7132 -2.89285 -6.76643 -4.34373
lowerback 8.77697 2.31252 3.35547
upperback 3.84142 3.34031 0.700145
thorax -0.782114 1.69457 -1.46313
lowerneck -11.439 -3.96128 -8.2951
upperneck 25.6291 -2.41999 -4.83802
head 10.1836 -2.45316 -0.604335
rclavicle -1.07841e-014 -5.96354e-016
rhumerus -16.874 -5.71439 -51.0952
rradius 124.817
rwrist 161.482
rhand -6.80791 19.0237
rfingers 7.12502
rthumb 19.0556 -10.0628
lclavicle 9.00619e-014 2.48481e-015
lhumerus -51.8482 -26.6463 97.2566
lradius 44.1974
lwrist -14.2524
lhand -36.9731 4.46299
lfingers 7.12502
lthumb -10.0486 34.2031
rfemur 35.5743 -4.71388 14.6271
rtibia 6.36111e-014
rfoot -0.324387 5.66482
rtoes -27.4628
lfemur -24.2881 13.4837 -11.5817
ltibia 34.2065
lfoot -15.3107 -8.7704
ltoes -10.1203
306
root 1.12494 16.5862 15.9386 -2.94935 -6.67741 -4.18747
lowerback 8.67725 2.34678 3.00345
upperback 3.82036 3.35327 0.582281
thorax -0.762639 1.69871 -1.38529
lowerneck -11.8463 -3.93597 -8.22903
upperneck 27.0414 -2.25333 -4.89556
head 10.7834 -2.43376 -0.65578
rclavicle 1.65737e-014 8.15017e-015
rhumerus -16.874 -5.71439 -51.0952
rradius 124.817
rwrist 161.482
rhand -6.80791 19.0237
rfingers 7.12502
rthumb 19.0556 -10.0628
lclavicle 9.00619e-014 2.48481e-015
lhumerus -51.8482 -26.6463 97.2566
lradius 44.1974
lwrist -14.2524
lhand -36.9731 4.46299
lfingers 7.12502
lthumb -10.0486 34.2031
rfemur 29.8421 -4.98232 13.9266
rtibia 13.3517
rfoot -3.32166 5.79112
rtoes -28.1771
lfemur -23.5158 13.8631 -11.7678
ltibia 34.3723
lfoot -15.4625 -9.26177
ltoes -9.89965
307
root 1.14644 16.6243 16.1593 -3.16219 -6.54311 -4.00647
lowerback 9.35706 2.98036 5.06435
upperback 3.52966 4.38093 -0.649586
thorax -1.12736 2.22829 -3.9414
lowerneck -11.441 -4.72449 -8.63857
upperneck 28.6727 -3.66081 -3.37883
head 11.3802 -2.97994 -0.249455
rclavicle -1.62506e-014 -1.70955e-014
rhumerus -16.874 -5.71439 -51.0952
rradius 124.817
rwrist 161.482
rhand -6.80791 19.0237
rfingers 7.12502
rthumb 19.0556 -10.0628
lclavicle -1.62506e-014 -1.70955e-014
lhumerus -52.224 -25.6805 99.259
lradius 41.2254
lwrist -13.1532
lhand -36.771 4.16517
lfingers 7.12502
lthumb -9.85368 33.9146
rfemur 27.1659 -5.11275 13.4775
rtibia 20.1
rfoot -2.57589 5.59327
rtoes -28.1513
lfemur -22.4899 14.2105 -11.9269
ltibia 34.434
lfoot -15.6936 -9.82807
ltoes -9.37951
308
root 1.16395 16.6619 16.3726 -3.2437 -6.41087 -3.95275
lowerback 9.36532 3.00878 4.89451
upperback 3.57843 4.39985 -0.815448
thorax -1.07916 2.24044 -4.01882
lowerneck -11.9356 -4.70899 -8.8527
upperneck 30.2337 -3.5942 -2.94695
head 12.1102 -2.9687 -0.091144
rclavicle 7.524e-014 -1.51076e-014
rhumerus -16.874 -5.71439 -51.0952
rradius 124.817
rwrist 161.482
rhand -6.80791 19.0237
rfingers 7.12502
rthumb 19.0556 -10.0628
lclavicle -1.62506e-014 -1.70955e-014
lhumerus -52.224 -25.6805 99.259
lradius 41.2254
lwrist -13.1532
lhand -36.771 4.16517
lfingers 7.12502
lthumb -9.85368 33.9146
rfemur 24.6992 -5.12826 13.337
rtibia 25.8882
rfoot -0.822996 5.01129
rtoes -26.2218
lfemur -21.5881 14.7279 -11.9661
ltibia 34.3839
lfoot -15.9582 -10.9246
ltoes -8.43665
